<svg width="26" height="16" viewBox="0 0 26 16" fill="none" xmlns="http://www.w3.org/2000/svg">
<g clip-path="url(#clip0_379_4097)">
<g clip-path="url(#clip1_379_4097)">
<path d="M6.07903 4.23996C6.08134 4.22513 6.08388 4.21039 6.08661 4.19576L6.39808 4.10914C6.77966 4.00308 7.18739 4.13947 7.42839 4.45375L7.59468 4.67066C7.86208 5.01944 8.31566 5.16912 8.73813 5.04797C9.08055 4.94979 9.35158 4.68755 9.46105 4.34859L9.55306 4.06362C9.62955 3.82677 9.78161 3.62283 9.98431 3.48204C10.3341 3.9654 10.5914 4.61993 10.8265 5.39127C11.3814 7.21233 10.8868 10.5656 9.51994 12.5883C8.15304 14.611 5.60636 15.258 3.58439 15.738C1.56245 16.2179 1.23177 15.4641 1.14359 15.1566C1.06393 14.8788 1.63962 14.6982 2.55865 14.41L2.55909 14.4098C2.65731 14.379 2.75944 14.347 2.86511 14.3135C3.95985 13.9663 5.29841 12.7006 5.76517 11.8179C6.23193 10.9353 6.52518 8.9911 6.11421 7.55786C5.75147 6.29284 5.85868 5.62143 6.03968 4.48762C6.05247 4.40753 6.06563 4.32508 6.07903 4.23996ZM7.52216 2.70195C7.45098 2.30045 7.3336 1.78431 7.17715 1.5058C6.93808 1.08021 6.59057 0.839583 6.44672 0.772478L6.28759 0.444252L6.76822 0.306433L6.86727 0.651886C6.96176 0.716892 7.19764 0.931014 7.50527 1.23291C7.74164 1.46487 8.15067 2.12719 8.39254 2.57987C8.91256 2.61174 9.3202 2.79634 9.65324 3.10442C9.38384 3.30569 9.18168 3.58657 9.07725 3.90998L8.98523 4.19494C8.92695 4.37544 8.78262 4.51507 8.60031 4.56734C8.37538 4.63184 8.13386 4.55214 7.99147 4.36641L7.82518 4.14953C7.47179 3.68862 6.88165 3.48024 6.31992 3.6131C6.61922 3.1489 7.12019 2.85596 7.52216 2.70195Z" fill="#CC6666"/>
</g>
<g clip-path="url(#clip2_379_4097)">
<path d="M12.5361 4.23996C12.5384 4.22513 12.5409 4.21039 12.5436 4.19576L12.8551 4.10914C13.2367 4.00308 13.6444 4.13947 13.8854 4.45375L14.0517 4.67066C14.3191 5.01944 14.7727 5.16912 15.1952 5.04797C15.5376 4.94979 15.8086 4.68755 15.9181 4.34859L16.0101 4.06362C16.0866 3.82677 16.2386 3.62283 16.4413 3.48204C16.7912 3.9654 17.0485 4.61993 17.2835 5.39127C17.8384 7.21233 17.3439 10.5656 15.977 12.5883C14.6101 14.611 12.0634 15.258 10.0414 15.738C8.01948 16.2179 7.6888 15.4641 7.60062 15.1566C7.52096 14.8788 8.09665 14.6982 9.01568 14.41L9.01612 14.4098C9.11434 14.379 9.21647 14.347 9.32214 14.3135C10.4169 13.9663 11.7554 12.7006 12.2222 11.8179C12.689 10.9353 12.9822 8.9911 12.5712 7.55786C12.2085 6.29284 12.3157 5.62143 12.4967 4.48762C12.5095 4.40753 12.5227 4.32508 12.5361 4.23996ZM13.9792 2.70195C13.908 2.30045 13.7906 1.78431 13.6342 1.5058C13.3951 1.08021 13.0476 0.839583 12.9038 0.772478L12.7446 0.444252L13.2252 0.306433L13.3243 0.651886C13.4188 0.716892 13.6547 0.931014 13.9623 1.23291C14.1987 1.46487 14.6077 2.12719 14.8496 2.57987C15.3696 2.61174 15.7772 2.79634 16.1103 3.10442C15.8409 3.30569 15.6387 3.58657 15.5343 3.90998L15.4423 4.19494C15.384 4.37544 15.2397 4.51507 15.0573 4.56734C14.8324 4.63184 14.5909 4.55214 14.4485 4.36641L14.2822 4.14953C13.9288 3.68862 13.3387 3.48024 12.7769 3.6131C13.0762 3.1489 13.5772 2.85596 13.9792 2.70195Z" fill="#CC6666"/>
</g>
<g clip-path="url(#clip3_379_4097)">
<path d="M19.3075 4.23996C19.3099 4.22513 19.3124 4.21039 19.3151 4.19576L19.6266 4.10914C20.0082 4.00308 20.4159 4.13947 20.6569 4.45375L20.8232 4.67066C21.0906 5.01944 21.5442 5.16912 21.9666 5.04797C22.3091 4.94979 22.5801 4.68755 22.6896 4.34859L22.7816 4.06362C22.8581 3.82677 23.0101 3.62283 23.2128 3.48204C23.5626 3.9654 23.82 4.61993 24.055 5.39127C24.6099 7.21233 24.1154 10.5656 22.7485 12.5883C21.3816 14.611 18.8349 15.258 16.8129 15.738C14.791 16.2179 14.4603 15.4641 14.3721 15.1566C14.2924 14.8788 14.8681 14.6982 15.7872 14.41L15.7876 14.4098C15.8858 14.379 15.988 14.347 16.0936 14.3135C17.1884 13.9663 18.5269 12.7006 18.9937 11.8179C19.4604 10.9353 19.7537 8.9911 19.3427 7.55786C18.98 6.29284 19.0872 5.62143 19.2682 4.48762C19.281 4.40753 19.2941 4.32508 19.3075 4.23996ZM20.7507 2.70195C20.6795 2.30045 20.5621 1.78431 20.4057 1.5058C20.1666 1.08021 19.8191 0.839583 19.6752 0.772478L19.5161 0.444252L19.9967 0.306433L20.0958 0.651886C20.1903 0.716892 20.4262 0.931014 20.7338 1.23291C20.9702 1.46487 21.3792 2.12719 21.6211 2.57987C22.1411 2.61174 22.5487 2.79634 22.8818 3.10442C22.6124 3.30569 22.4102 3.58657 22.3058 3.90998L22.2137 4.19494C22.1555 4.37544 22.0111 4.51507 21.8288 4.56734C21.6039 4.63184 21.3624 4.55214 21.22 4.36641L21.0537 4.14953C20.7003 3.68862 20.1102 3.48024 19.5484 3.6131C19.8477 3.1489 20.3487 2.85596 20.7507 2.70195Z" fill="#CC6666"/>
</g>
</g>
<defs>
<clipPath id="clip0_379_4097">
<rect width="25.3333" height="16" fill="white"/>
</clipPath>
<clipPath id="clip1_379_4097">
<rect width="16" height="16" fill="white" transform="translate(-4.56201 2.51501) rotate(-16)"/>
</clipPath>
<clipPath id="clip2_379_4097">
<rect width="16" height="16" fill="white" transform="translate(1.89502 2.51501) rotate(-16)"/>
</clipPath>
<clipPath id="clip3_379_4097">
<rect width="16" height="16" fill="white" transform="translate(8.6665 2.51501) rotate(-16)"/>
</clipPath>
</defs>
</svg>
