<svg width="16" height="16" viewBox="0 0 16 16" fill="none" xmlns="http://www.w3.org/2000/svg">
<g clip-path="url(#clip0_379_4057)">
<g clip-path="url(#clip1_379_4057)">
<path d="M7.30754 4.23996C7.30986 4.22513 7.31239 4.21039 7.31512 4.19576L7.62659 4.10914C8.00817 4.00308 8.41591 4.13947 8.6569 4.45375L8.82319 4.67066C9.09059 5.01944 9.54417 5.16912 9.96665 5.04797C10.3091 4.94979 10.5801 4.68755 10.6896 4.34859L10.7816 4.06362C10.8581 3.82677 11.0101 3.62283 11.2128 3.48204C11.5626 3.9654 11.82 4.61993 12.055 5.39127C12.6099 7.21233 12.1154 10.5656 10.7485 12.5883C9.38155 14.611 6.83487 15.258 4.8129 15.738C2.79096 16.2179 2.46028 15.4641 2.3721 15.1566C2.29244 14.8788 2.86813 14.6982 3.78716 14.41L3.78761 14.4098C3.88583 14.379 3.98796 14.347 4.09363 14.3135C5.18836 13.9663 6.52693 12.7006 6.99369 11.8179C7.46045 10.9353 7.7537 8.9911 7.34272 7.55786C6.97999 6.29284 7.0872 5.62143 7.26819 4.48762C7.28098 4.40753 7.29414 4.32508 7.30754 4.23996ZM8.75067 2.70195C8.6795 2.30045 8.56212 1.78431 8.40567 1.5058C8.1666 1.08021 7.81909 0.839583 7.67524 0.772478L7.5161 0.444252L7.99673 0.306433L8.09579 0.651886C8.19027 0.716892 8.42615 0.931014 8.73378 1.23291C8.97016 1.46487 9.37919 2.12719 9.62105 2.57987C10.1411 2.61174 10.5487 2.79634 10.8818 3.10442C10.6124 3.30569 10.4102 3.58657 10.3058 3.90998L10.2137 4.19494C10.1555 4.37544 10.0111 4.51507 9.82883 4.56734C9.60389 4.63184 9.36238 4.55214 9.21998 4.36641L9.0537 4.14953C8.70031 3.68862 8.11017 3.48024 7.54843 3.6131C7.84773 3.1489 8.34871 2.85596 8.75067 2.70195Z" fill="#CC6666"/>
</g>
</g>
<defs>
<clipPath id="clip0_379_4057">
<rect width="16" height="16" fill="white"/>
</clipPath>
<clipPath id="clip1_379_4057">
<rect width="16" height="16" fill="white" transform="translate(-3.3335 2.51501) rotate(-16)"/>
</clipPath>
</defs>
</svg>
