<svg width="21" height="20" viewBox="0 0 21 20" fill="none" xmlns="http://www.w3.org/2000/svg">
<g clip-path="url(#clip0_555_3327)">
<path d="M13.8333 7.50002V4.16669L20.5 10L13.8333 15.8334V12.5H7.16667V7.50002H13.8333ZM12.1667 15.8334V15.7642C11.185 16.335 10.0483 16.6667 8.83333 16.6667C5.1575 16.6667 2.16667 13.6759 2.16667 10C2.16667 6.32419 5.1575 3.33335 8.83333 3.33335C10.0483 3.33335 11.185 3.66502 12.1667 4.23585V2.36502C11.145 1.91835 10.0192 1.66669 8.83333 1.66669C4.23167 1.66669 0.5 5.39752 0.5 10C0.5 14.6025 4.23167 18.3334 8.83333 18.3334C10.0192 18.3334 11.145 18.0817 12.1667 17.635V15.8334Z" fill="#42837A"/>
</g>
<defs>
<clipPath id="clip0_555_3327">
<rect width="20" height="20" fill="white" transform="translate(0.5)"/>
</clipPath>
</defs>
</svg>
