<svg width="20" height="20" viewBox="0 0 20 20" fill="none" xmlns="http://www.w3.org/2000/svg">
<path d="M6.66667 7.49999V4.16666L13.3333 9.99999L6.66667 15.8333V12.5H0V7.49999H6.66667ZM11.6667 1.66666C10.1775 1.66666 8.78333 2.06166 7.57417 2.74582L7.76417 2.91249L8.92667 3.92999C9.76333 3.54999 10.6892 3.33332 11.6667 3.33332C15.3425 3.33332 18.3333 6.32416 18.3333 9.99999C18.3333 13.6758 15.3425 16.6667 11.6667 16.6667C10.6892 16.6667 9.76333 16.45 8.92667 16.0708L7.76417 17.0883L7.57417 17.255C8.78333 17.9383 10.1775 18.3333 11.6667 18.3333C16.2683 18.3333 20 14.6025 20 9.99999C20 5.39749 16.2683 1.66666 11.6667 1.66666Z" fill="white"/>
</svg>
