<svg width="24" height="25" viewBox="0 0 24 25" fill="none" xmlns="http://www.w3.org/2000/svg">
<g clip-path="url(#clip0_571_8875)">
<path d="M12 18.2773C13.657 18.2773 15 19.6203 15 21.2773C15 22.9343 13.657 24.2773 12 24.2773C10.343 24.2773 9 22.9343 9 21.2773C9 19.6203 10.343 18.2773 12 18.2773ZM12 9.27734C13.657 9.27734 15 10.6203 15 12.2773C15 13.9343 13.657 15.2773 12 15.2773C10.343 15.2773 9 13.9343 9 12.2773C9 10.6203 10.343 9.27734 12 9.27734ZM12 0.277344C13.657 0.277344 15 1.62034 15 3.27734C15 4.93434 13.657 6.27734 12 6.27734C10.343 6.27734 9 4.93434 9 3.27734C9 1.62034 10.343 0.277344 12 0.277344Z" fill="#303030"/>
</g>
<defs>
<clipPath id="clip0_571_8875">
<rect width="24" height="24" fill="white" transform="translate(0 0.277344)"/>
</clipPath>
</defs>
</svg>
