<svg width="21" height="21" viewBox="0 0 21 21" fill="none" xmlns="http://www.w3.org/2000/svg">
<g clip-path="url(#clip0_339_7817)">
<path d="M10.5 1.6333C5.21833 1.6333 0.5 5.15497 0.5 9.97247C0.5 11.6808 1.11583 13.3583 2.20583 14.66C2.25167 16.185 1.35333 18.3733 0.545 19.9666C2.71333 19.575 5.79583 18.71 7.19333 17.8533C14.89 19.7258 20.5 15.0158 20.5 9.97247C20.5 5.12913 15.7492 1.6333 10.5 1.6333V1.6333ZM6.33333 11.2166C5.6425 11.2166 5.08333 10.6575 5.08333 9.96663C5.08333 9.2758 5.6425 8.71663 6.33333 8.71663C7.02417 8.71663 7.58333 9.2758 7.58333 9.96663C7.58333 10.6575 7.02417 11.2166 6.33333 11.2166ZM10.5 11.2166C9.80917 11.2166 9.25 10.6575 9.25 9.96663C9.25 9.2758 9.80917 8.71663 10.5 8.71663C11.1908 8.71663 11.75 9.2758 11.75 9.96663C11.75 10.6575 11.1908 11.2166 10.5 11.2166ZM14.6667 11.2166C13.9767 11.2166 13.4167 10.6575 13.4167 9.96663C13.4167 9.2758 13.9767 8.71663 14.6667 8.71663C15.3575 8.71663 15.9167 9.2758 15.9167 9.96663C15.9167 10.6575 15.3575 11.2166 14.6667 11.2166Z" fill="white"/>
</g>
<defs>
<clipPath id="clip0_339_7817">
<rect width="20" height="20" fill="white" transform="translate(0.5 0.799805)"/>
</clipPath>
</defs>
</svg>
