<svg width="19" height="16" viewBox="0 0 19 16" fill="none" xmlns="http://www.w3.org/2000/svg">
<g clip-path="url(#clip0_379_4028)">
<g clip-path="url(#clip1_379_4028)">
<path d="M5.97429 4.23996C5.9766 4.22513 5.97914 4.21039 5.98187 4.19576L6.29334 4.10914C6.67492 4.00308 7.08265 4.13947 7.32365 4.45375L7.48994 4.67066C7.75734 5.01944 8.21092 5.16912 8.63339 5.04797C8.97581 4.94979 9.24684 4.68755 9.35631 4.34859L9.44833 4.06362C9.52482 3.82677 9.67687 3.62283 9.87957 3.48204C10.2294 3.9654 10.4867 4.61993 10.7217 5.39127C11.2766 7.21233 10.7821 10.5656 9.4152 12.5883C8.0483 14.611 5.50162 15.258 3.47965 15.738C1.45771 16.2179 1.12703 15.4641 1.03885 15.1566C0.959191 14.8788 1.53488 14.6982 2.45391 14.41L2.45435 14.4098C2.55257 14.379 2.65471 14.347 2.76037 14.3135C3.85511 13.9663 5.19367 12.7006 5.66044 11.8179C6.12719 10.9353 6.42045 8.9911 6.00947 7.55786C5.64673 6.29284 5.75395 5.62143 5.93494 4.48762C5.94773 4.40753 5.96089 4.32508 5.97429 4.23996ZM7.41742 2.70195C7.34624 2.30045 7.22887 1.78431 7.07241 1.5058C6.83334 1.08021 6.48584 0.839583 6.34199 0.772478L6.18285 0.444252L6.66348 0.306433L6.76254 0.651886C6.85702 0.716892 7.0929 0.931014 7.40053 1.23291C7.6369 1.46487 8.04593 2.12719 8.2878 2.57987C8.80782 2.61174 9.21546 2.79634 9.5485 3.10442C9.2791 3.30569 9.07695 3.58657 8.97251 3.90998L8.8805 4.19494C8.82221 4.37544 8.67788 4.51507 8.49558 4.56734C8.27064 4.63184 8.02913 4.55214 7.88673 4.36641L7.72045 4.14953C7.36705 3.68862 6.77691 3.48024 6.21518 3.6131C6.51448 3.1489 7.01545 2.85596 7.41742 2.70195Z" fill="#CC6666"/>
</g>
<g clip-path="url(#clip2_379_4028)">
<path d="M12.4313 4.23996C12.4336 4.22513 12.4362 4.21039 12.4389 4.19576L12.7504 4.10914C13.1319 4.00308 13.5397 4.13947 13.7807 4.45375L13.947 4.67066C14.2144 5.01944 14.668 5.16912 15.0904 5.04797C15.4328 4.94979 15.7039 4.68755 15.8133 4.34859L15.9054 4.06362C15.9818 3.82677 16.1339 3.62283 16.3366 3.48204C16.6864 3.9654 16.9437 4.61993 17.1788 5.39127C17.7337 7.21233 17.2391 10.5656 15.8722 12.5883C14.5053 14.611 11.9587 15.258 9.93668 15.738C7.91474 16.2179 7.58406 15.4641 7.49588 15.1566C7.41622 14.8788 7.99191 14.6982 8.91094 14.41L8.91138 14.4098C9.00961 14.379 9.11174 14.347 9.2174 14.3135C10.3121 13.9663 11.6507 12.7006 12.1175 11.8179C12.5842 10.9353 12.8775 8.9911 12.4665 7.55786C12.1038 6.29284 12.211 5.62143 12.392 4.48762C12.4048 4.40753 12.4179 4.32508 12.4313 4.23996ZM13.8744 2.70195C13.8033 2.30045 13.6859 1.78431 13.5294 1.5058C13.2904 1.08021 12.9429 0.839583 12.799 0.772478L12.6399 0.444252L13.1205 0.306433L13.2196 0.651886C13.3141 0.716892 13.5499 0.931014 13.8576 1.23291C14.0939 1.46487 14.503 2.12719 14.7448 2.57987C15.2649 2.61174 15.6725 2.79634 16.0055 3.10442C15.7361 3.30569 15.534 3.58657 15.4295 3.90998L15.3375 4.19494C15.2792 4.37544 15.1349 4.51507 14.9526 4.56734C14.7277 4.63184 14.4862 4.55214 14.3438 4.36641L14.1775 4.14953C13.8241 3.68862 13.2339 3.48024 12.6722 3.6131C12.9715 3.1489 13.4725 2.85596 13.8744 2.70195Z" fill="#CC6666"/>
</g>
</g>
<defs>
<clipPath id="clip0_379_4028">
<rect width="18.6667" height="16" fill="white"/>
</clipPath>
<clipPath id="clip1_379_4028">
<rect width="16" height="16" fill="white" transform="translate(-4.66675 2.51501) rotate(-16)"/>
</clipPath>
<clipPath id="clip2_379_4028">
<rect width="16" height="16" fill="white" transform="translate(1.79028 2.51501) rotate(-16)"/>
</clipPath>
</defs>
</svg>
