<?xml version="1.0" standalone="no"?>
<!DOCTYPE svg PUBLIC "-//W3C//DTD SVG 20010904//EN"
 "http://www.w3.org/TR/2001/REC-SVG-20010904/DTD/svg10.dtd">
<svg version="1.0" xmlns="http://www.w3.org/2000/svg"
 width="1080.000000pt" height="1080.000000pt" viewBox="0 0 1080.000000 1080.000000"
 preserveAspectRatio="xMidYMid meet">
<metadata>
Created by potrace 1.14, written by Peter Selinger 2001-2017
</metadata>
<g transform="translate(0.000000,1080.000000) scale(0.100000,-0.100000)"
fill="#000000" stroke="none">
<path d="M974 10785 c-192 -34 -348 -99 -525 -216 -104 -70 -246 -206 -296
-284 -18 -27 -36 -54 -41 -60 -7 -9 -52 -101 -52 -108 0 -1 30 1 68 4 69 8
577 4 692 -5 329 -24 709 -25 870 -1 158 23 150 21 200 36 25 7 54 14 65 16
11 2 24 8 29 13 6 6 17 10 25 10 8 0 51 17 94 37 73 34 81 36 110 23 99 -41
267 -92 367 -110 160 -29 283 -35 600 -31 754 9 847 7 1096 -24 60 -7 62 -8
79 -49 42 -96 126 -144 360 -206 165 -43 181 -49 226 -75 l43 -24 -30 -7 c-79
-19 -345 -170 -465 -265 l-36 -28 18 -68 c13 -51 16 -97 14 -188 -2 -66 -6
-131 -9 -145 -8 -34 -17 -123 -20 -190 -1 -46 7 -78 56 -201 125 -319 140
-483 51 -576 l-33 -36 32 -28 c18 -15 57 -43 87 -61 112 -69 197 -127 221
-150 41 -37 74 -88 63 -99 -5 -5 -75 -42 -156 -83 -118 -60 -191 -102 -245
-141 -5 -4 -15 -220 -15 -350 0 -122 10 -406 18 -485 1 -19 6 -75 10 -125 10
-120 12 -150 19 -215 6 -62 17 -184 22 -245 5 -61 15 -262 18 -339 3 -92 17
-103 93 -74 l54 21 21 -21 c12 -12 18 -27 15 -36 -9 -23 -64 -54 -108 -61 -32
-6 -40 -12 -48 -38 -12 -43 -22 -86 -27 -122 -2 -16 -7 -44 -10 -62 -6 -39 -6
-258 0 -293 7 -38 25 -200 32 -277 3 -37 7 -79 10 -93 5 -31 5 -222 0 -310 -6
-98 -17 -223 -21 -240 -2 -8 -7 -53 -10 -100 -4 -47 -8 -87 -10 -90 -2 -3 -6
-41 -10 -85 -4 -44 -9 -87 -10 -96 -19 -99 -24 -428 -10 -564 12 -113 12 -451
0 -655 -12 -210 -10 -538 3 -630 17 -109 20 -122 48 -211 25 -80 25 -93 -7
-119 -17 -14 -71 -113 -98 -180 -28 -71 -75 -240 -85 -305 -2 -16 -7 -48 -11
-70 -6 -42 -12 -88 -19 -145 -30 -236 -19 -719 19 -837 7 -22 121 30 495 225
203 105 349 168 462 198 l66 18 2 145 c2 188 5 303 16 591 11 297 12 1083 1
1215 -11 132 -18 198 -23 207 -5 7 -37 3 -99 -14 -76 -20 -99 -15 -115 25 -7
19 0 30 44 72 64 62 95 104 128 175 83 178 104 477 63 875 -2 22 -7 67 -10
100 -3 33 -8 71 -10 85 -2 14 -6 61 -10 105 -7 94 -12 144 -21 240 -10 99 -11
376 -1 466 5 42 14 100 22 129 10 38 11 52 2 55 -7 2 -43 13 -82 24 -213 62
-336 241 -313 454 18 176 168 339 346 378 29 6 52 13 52 15 0 2 -18 31 -40 63
-23 33 -59 108 -82 168 -22 59 -53 135 -69 168 -20 42 -25 63 -18 72 6 7 49
27 96 44 122 46 132 70 109 244 -10 69 -18 344 -21 700 -3 362 -9 542 -21 630
-5 43 -14 108 -19 140 -22 140 -73 290 -134 389 l-22 35 26 41 c15 23 47 69
71 103 56 75 82 132 89 190 l6 45 -56 27 c-31 14 -95 41 -143 59 -161 62 -239
116 -270 186 -24 55 -24 59 34 126 79 93 97 124 234 389 187 362 269 444 485
482 61 11 363 10 460 -2 129 -16 202 -26 230 -31 11 -3 38 -7 60 -10 22 -3 63
-9 90 -14 28 -5 73 -12 100 -15 28 -4 64 -8 80 -10 17 -3 62 -7 102 -10 l71
-5 32 63 c38 74 62 101 101 117 40 17 64 8 155 -53 43 -30 104 -68 134 -85 64
-35 101 -45 227 -58 37 -4 82 -8 98 -10 37 -4 514 -4 575 0 25 2 104 7 175 11
72 4 148 9 170 10 22 2 90 6 150 10 61 4 126 8 145 10 114 11 368 20 585 20
213 0 258 -3 305 -18 185 -61 268 -67 390 -26 177 58 303 179 510 494 40 60
81 121 92 134 l19 25 -36 13 c-20 7 -61 14 -90 17 -154 12 -290 -67 -470 -274
-43 -49 -81 -87 -84 -85 -3 3 -6 15 -8 27 -7 48 -128 258 -148 258 -5 0 -23
-7 -40 -16 -41 -22 -148 -57 -287 -94 -181 -48 -245 -77 -318 -147 l-36 -33
-22 75 c-13 46 -33 87 -51 107 -32 36 -57 39 -186 25 -33 -4 -96 -9 -140 -12
-210 -13 -317 -34 -380 -73 -40 -24 -85 -68 -85 -83 0 -7 -44 -5 -150 6 -89
10 -131 14 -205 20 -38 3 -86 8 -105 10 -107 12 -206 21 -355 31 -60 4 -123 8
-140 9 -222 20 -980 28 -1135 12 -41 -4 -104 -9 -140 -12 -36 -3 -81 -7 -100
-10 -19 -3 -50 -7 -67 -10 -18 -2 -57 -9 -88 -15 -48 -10 -68 -8 -168 14 -61
13 -130 27 -151 30 -21 4 -48 8 -60 11 -33 7 -175 24 -244 30 -249 21 -757 26
-1157 12 -514 -18 -689 -22 -1035 -22 -451 0 -653 11 -940 50 -156 21 -438 80
-510 106 -19 7 -78 38 -130 68 -101 60 -127 74 -175 92 -43 16 -248 19 -331 4z"/>
</g>
</svg>
